# MagicaVoxel @ Ephtracy

# group
o 

# material
mtllib untitled.mtl
usemtl palette

# normals
vn -1 0 0
vn 1 0 0
vn 0 0 1
vn 0 0 -1
vn 0 -1 0
vn 0 1 0

# texcoords
vt 0.970703 0.5
vt 0.974609 0.5
vt 0.978516 0.5
vt 0.982422 0.5
vt 0.986328 0.5

# verts
v -1.1 0 0.5
v -1.1 0 -0.3
v -1.1 0.8 0.5
v -1.1 0.8 -0.3
v 0.1 1 0.1
v 0.1 1 0
v 0.1 1.6 0.1
v 0.1 1.6 0
v 0.2 0.8 0.1
v 0.2 0.8 0
v 0.2 1 0.1
v 0.2 1 0
v 0.4 0.9 0.1
v 0.4 0.9 0
v 0.4 1 0.1
v 0.4 1 0
v 0.5 1 0.1
v 0.5 1 0
v 0.5 1.1 0.1
v 0.5 1.1 0
v 0.6 1.1 0.1
v 0.6 1.1 0
v 0.6 1.3 0.1
v 0.6 1.3 0
v 0.7 1.3 0.1
v 0.7 1.3 0
v 0.7 1.4 0.1
v 0.7 1.4 0
v 0.2 1 0.1
v 0.2 1 0
v 0.2 1.6 0.1
v 0.2 1.6 0
v 0.3 0.9 0.1
v 0.3 0.9 0
v 0.3 1 0.1
v 0.3 1 0
v 0.4 0.8 0.1
v 0.4 0.8 0
v 0.4 0.9 0.1
v 0.4 0.9 0
v 0.5 0.9 0.1
v 0.5 0.9 0
v 0.5 1 0.1
v 0.5 1 0
v 0.6 1 0.1
v 0.6 1 0
v 0.6 1.1 0.1
v 0.6 1.1 0
v 0.7 1.1 0.1
v 0.7 1.1 0
v 0.7 1.3 0.1
v 0.7 1.3 0
v 0.8 0 0.5
v 0.8 0 -0.3
v 0.8 0.8 0.5
v 0.8 0.8 -0.3
v 0.8 1.3 0.1
v 0.8 1.3 0
v 0.8 1.4 0.1
v 0.8 1.4 0
v -1.1 0 0.5
v -1.1 0.8 0.5
v -1 0.2 0.5
v -1 0.3 0.5
v -1 0.4 0.5
v -1 0.5 0.5
v -1 0.6 0.5
v -1 0.7 0.5
v -0.9 0.1 0.5
v -0.9 0.2 0.5
v -0.9 0.3 0.5
v -0.9 0.4 0.5
v -0.9 0.5 0.5
v -0.9 0.6 0.5
v -0.9 0.7 0.5
v -0.8 0.1 0.5
v -0.8 0.2 0.5
v -0.8 0.3 0.5
v -0.8 0.4 0.5
v -0.8 0.5 0.5
v -0.8 0.6 0.5
v -0.8 0.7 0.5
v -0.7 0.1 0.5
v -0.7 0.2 0.5
v -0.7 0.3 0.5
v -0.7 0.4 0.5
v -0.7 0.5 0.5
v -0.7 0.6 0.5
v -0.7 0.7 0.5
v -0.6 0.1 0.5
v -0.6 0.2 0.5
v -0.6 0.3 0.5
v -0.6 0.4 0.5
v -0.6 0.5 0.5
v -0.6 0.6 0.5
v -0.6 0.7 0.5
v -0.5 0.1 0.5
v -0.5 0.2 0.5
v -0.5 0.3 0.5
v -0.5 0.4 0.5
v -0.5 0.5 0.5
v -0.5 0.6 0.5
v -0.5 0.7 0.5
v -0.4 0.1 0.5
v -0.4 0.2 0.5
v -0.4 0.3 0.5
v -0.4 0.4 0.5
v -0.4 0.5 0.5
v -0.4 0.6 0.5
v -0.4 0.7 0.5
v -0.3 0.1 0.5
v -0.3 0.2 0.5
v -0.3 0.3 0.5
v -0.3 0.4 0.5
v -0.3 0.5 0.5
v -0.3 0.6 0.5
v -0.3 0.7 0.5
v -0.2 0.1 0.5
v -0.2 0.2 0.5
v -0.2 0.3 0.5
v -0.2 0.4 0.5
v -0.2 0.5 0.5
v -0.2 0.6 0.5
v -0.2 0.7 0.5
v -0.1 0.2 0.5
v -0.1 0.3 0.5
v -0.1 0.4 0.5
v -0.1 0.5 0.5
v -0.1 0.6 0.5
v -0.1 0.7 0.5
v 0.1 0.2 0.5
v 0.1 0.3 0.5
v 0.1 0.7 0.5
v 0.3 0.2 0.5
v 0.3 0.3 0.5
v 0.5 0.2 0.5
v 0.5 0.3 0.5
v 0.7 0.2 0.5
v 0.7 0.3 0.5
v 0.7 0.7 0.5
v 0.8 0 0.5
v 0.8 0.8 0.5
v 0.1 1 0.1
v 0.1 1.6 0.1
v 0.2 0.8 0.1
v 0.2 1 0.1
v 0.2 1.6 0.1
v 0.3 0.9 0.1
v 0.3 1 0.1
v 0.4 0.8 0.1
v 0.4 0.9 0.1
v 0.4 1 0.1
v 0.5 0.9 0.1
v 0.5 1 0.1
v 0.5 1.1 0.1
v 0.6 1 0.1
v 0.6 1.1 0.1
v 0.6 1.3 0.1
v 0.7 1.1 0.1
v 0.7 1.3 0.1
v 0.7 1.4 0.1
v 0.8 1.3 0.1
v 0.8 1.4 0.1
v 0.1 1 0
v 0.1 1.6 0
v 0.2 0.8 0
v 0.2 1 0
v 0.2 1.6 0
v 0.3 0.9 0
v 0.3 1 0
v 0.4 0.8 0
v 0.4 0.9 0
v 0.4 1 0
v 0.5 0.9 0
v 0.5 1 0
v 0.5 1.1 0
v 0.6 1 0
v 0.6 1.1 0
v 0.6 1.3 0
v 0.7 1.1 0
v 0.7 1.3 0
v 0.7 1.4 0
v 0.8 1.3 0
v 0.8 1.4 0
v -1.1 0 -0.3
v -1.1 0.8 -0.3
v 0.8 0 -0.3
v 0.8 0.8 -0.3
v -1.1 0 0.5
v 0.8 0 0.5
v -1.1 0 -0.3
v 0.8 0 -0.3
v 0.4 0.9 0.1
v 0.5 0.9 0.1
v 0.4 0.9 0
v 0.5 0.9 0
v 0.1 1 0.1
v 0.2 1 0.1
v 0.5 1 0.1
v 0.6 1 0.1
v 0.1 1 0
v 0.2 1 0
v 0.5 1 0
v 0.6 1 0
v 0.6 1.1 0.1
v 0.7 1.1 0.1
v 0.6 1.1 0
v 0.7 1.1 0
v 0.7 1.3 0.1
v 0.8 1.3 0.1
v 0.7 1.3 0
v 0.8 1.3 0
v -1.1 0.8 0.5
v 0.8 0.8 0.5
v 0.2 0.8 0.1
v 0.4 0.8 0.1
v 0.2 0.8 0
v 0.4 0.8 0
v -1.1 0.8 -0.3
v 0.8 0.8 -0.3
v 0.3 0.9 0.1
v 0.4 0.9 0.1
v 0.3 0.9 0
v 0.4 0.9 0
v 0.2 1 0.1
v 0.3 1 0.1
v 0.4 1 0.1
v 0.5 1 0.1
v 0.2 1 0
v 0.3 1 0
v 0.4 1 0
v 0.5 1 0
v 0.5 1.1 0.1
v 0.6 1.1 0.1
v 0.5 1.1 0
v 0.6 1.1 0
v 0.6 1.3 0.1
v 0.7 1.3 0.1
v 0.6 1.3 0
v 0.7 1.3 0
v 0.7 1.4 0.1
v 0.8 1.4 0.1
v 0.7 1.4 0
v 0.8 1.4 0
v 0.1 1.6 0.1
v 0.2 1.6 0.1
v 0.1 1.6 0
v 0.2 1.6 0

# faces
f 3/1/1 2/1/1 1/1/1
f 4/1/1 2/1/1 3/1/1
f 7/2/1 6/2/1 5/2/1
f 8/2/1 6/2/1 7/2/1
f 11/2/1 10/2/1 9/2/1
f 12/2/1 10/2/1 11/2/1
f 15/2/1 14/2/1 13/2/1
f 16/2/1 14/2/1 15/2/1
f 19/2/1 18/2/1 17/2/1
f 20/2/1 18/2/1 19/2/1
f 23/2/1 22/2/1 21/2/1
f 24/2/1 22/2/1 23/2/1
f 27/2/1 26/2/1 25/2/1
f 28/2/1 26/2/1 27/2/1
f 29/2/2 30/2/2 31/2/2
f 31/2/2 30/2/2 32/2/2
f 33/2/2 34/2/2 35/2/2
f 35/2/2 34/2/2 36/2/2
f 37/2/2 38/2/2 39/2/2
f 39/2/2 38/2/2 40/2/2
f 41/2/2 42/2/2 43/2/2
f 43/2/2 42/2/2 44/2/2
f 45/2/2 46/2/2 47/2/2
f 47/2/2 46/2/2 48/2/2
f 49/2/2 50/2/2 51/2/2
f 51/2/2 50/2/2 52/2/2
f 53/1/2 54/1/2 55/1/2
f 55/1/2 54/1/2 56/1/2
f 57/2/2 58/2/2 59/2/2
f 59/2/2 58/2/2 60/2/2
f 63/1/3 62/1/3 61/1/3
f 64/1/3 62/1/3 63/1/3
f 65/1/3 62/1/3 64/1/3
f 66/1/3 62/1/3 65/1/3
f 67/1/3 62/1/3 66/1/3
f 68/1/3 62/1/3 67/1/3
f 69/1/3 63/1/3 61/1/3
f 70/2/3 64/2/3 63/2/3
f 70/1/3 63/1/3 69/1/3
f 71/1/3 65/1/3 64/1/3
f 71/2/3 64/2/3 70/2/3
f 72/2/3 66/2/3 65/2/3
f 72/1/3 65/1/3 71/1/3
f 73/1/3 67/1/3 66/1/3
f 73/2/3 66/2/3 72/2/3
f 74/2/3 68/2/3 67/2/3
f 74/1/3 67/1/3 73/1/3
f 75/1/3 62/1/3 68/1/3
f 75/2/3 68/2/3 74/2/3
f 76/1/3 69/1/3 61/1/3
f 76/2/3 70/2/3 69/2/3
f 77/1/3 71/1/3 70/1/3
f 77/2/3 70/2/3 76/2/3
f 78/2/3 72/2/3 71/2/3
f 78/1/3 71/1/3 77/1/3
f 79/1/3 73/1/3 72/1/3
f 79/2/3 72/2/3 78/2/3
f 80/2/3 74/2/3 73/2/3
f 80/1/3 73/1/3 79/1/3
f 81/1/3 75/1/3 74/1/3
f 81/2/3 74/2/3 80/2/3
f 82/1/3 62/1/3 75/1/3
f 82/1/3 75/1/3 81/1/3
f 83/1/3 76/1/3 61/1/3
f 83/1/3 77/1/3 76/1/3
f 84/2/3 78/2/3 77/2/3
f 84/1/3 77/1/3 83/1/3
f 85/1/3 79/1/3 78/1/3
f 85/2/3 78/2/3 84/2/3
f 86/2/3 80/2/3 79/2/3
f 86/1/3 79/1/3 85/1/3
f 87/1/3 81/1/3 80/1/3
f 87/2/3 80/2/3 86/2/3
f 88/2/3 82/2/3 81/2/3
f 88/1/3 81/1/3 87/1/3
f 89/1/3 62/1/3 82/1/3
f 89/2/3 82/2/3 88/2/3
f 90/2/3 84/2/3 83/2/3
f 90/1/3 83/1/3 61/1/3
f 91/1/3 85/1/3 84/1/3
f 91/2/3 84/2/3 90/2/3
f 92/2/3 86/2/3 85/2/3
f 92/1/3 85/1/3 91/1/3
f 93/1/3 87/1/3 86/1/3
f 93/2/3 86/2/3 92/2/3
f 94/2/3 88/2/3 87/2/3
f 94/1/3 87/1/3 93/1/3
f 95/1/3 89/1/3 88/1/3
f 95/2/3 88/2/3 94/2/3
f 96/1/3 62/1/3 89/1/3
f 96/1/3 89/1/3 95/1/3
f 97/1/3 91/1/3 90/1/3
f 97/1/3 90/1/3 61/1/3
f 98/2/3 92/2/3 91/2/3
f 98/1/3 91/1/3 97/1/3
f 99/1/3 93/1/3 92/1/3
f 99/2/3 92/2/3 98/2/3
f 100/2/3 94/2/3 93/2/3
f 100/1/3 93/1/3 99/1/3
f 101/1/3 95/1/3 94/1/3
f 101/2/3 94/2/3 100/2/3
f 102/2/3 96/2/3 95/2/3
f 102/1/3 95/1/3 101/1/3
f 103/1/3 62/1/3 96/1/3
f 103/2/3 96/2/3 102/2/3
f 104/2/3 98/2/3 97/2/3
f 104/1/3 97/1/3 61/1/3
f 105/1/3 99/1/3 98/1/3
f 105/2/3 98/2/3 104/2/3
f 106/2/3 100/2/3 99/2/3
f 106/1/3 99/1/3 105/1/3
f 107/1/3 101/1/3 100/1/3
f 107/2/3 100/2/3 106/2/3
f 108/2/3 102/2/3 101/2/3
f 108/1/3 101/1/3 107/1/3
f 109/1/3 103/1/3 102/1/3
f 109/2/3 102/2/3 108/2/3
f 110/1/3 62/1/3 103/1/3
f 110/1/3 103/1/3 109/1/3
f 111/1/3 105/1/3 104/1/3
f 111/1/3 104/1/3 61/1/3
f 112/2/3 106/2/3 105/2/3
f 112/1/3 105/1/3 111/1/3
f 113/1/3 107/1/3 106/1/3
f 113/2/3 106/2/3 112/2/3
f 114/2/3 108/2/3 107/2/3
f 114/1/3 107/1/3 113/1/3
f 115/1/3 109/1/3 108/1/3
f 115/2/3 108/2/3 114/2/3
f 116/2/3 110/2/3 109/2/3
f 116/1/3 109/1/3 115/1/3
f 117/1/3 62/1/3 110/1/3
f 117/2/3 110/2/3 116/2/3
f 118/2/3 112/2/3 111/2/3
f 118/1/3 111/1/3 61/1/3
f 119/1/3 113/1/3 112/1/3
f 119/2/3 112/2/3 118/2/3
f 120/2/3 114/2/3 113/2/3
f 120/1/3 113/1/3 119/1/3
f 121/1/3 115/1/3 114/1/3
f 121/2/3 114/2/3 120/2/3
f 122/2/3 116/2/3 115/2/3
f 122/1/3 115/1/3 121/1/3
f 123/1/3 117/1/3 116/1/3
f 123/2/3 116/2/3 122/2/3
f 124/1/3 62/1/3 117/1/3
f 124/1/3 117/1/3 123/1/3
f 125/1/3 119/1/3 118/1/3
f 125/2/3 120/2/3 119/2/3
f 126/1/3 121/1/3 120/1/3
f 126/2/3 120/2/3 125/2/3
f 127/2/3 122/2/3 121/2/3
f 127/1/3 121/1/3 126/1/3
f 128/1/3 123/1/3 122/1/3
f 128/2/3 122/2/3 127/2/3
f 129/2/3 124/2/3 123/2/3
f 129/1/3 123/1/3 128/1/3
f 130/1/3 62/1/3 124/1/3
f 130/2/3 124/2/3 129/2/3
f 131/1/3 125/1/3 118/1/3
f 131/1/3 127/1/3 126/1/3
f 131/1/3 130/1/3 129/1/3
f 131/1/3 128/1/3 127/1/3
f 131/1/3 126/1/3 125/1/3
f 131/1/3 129/1/3 128/1/3
f 132/1/3 130/1/3 131/1/3
f 133/1/3 62/1/3 130/1/3
f 133/1/3 130/1/3 132/1/3
f 134/5/3 132/5/3 131/5/3
f 134/1/3 131/1/3 118/1/3
f 135/3/3 133/3/3 132/3/3
f 135/5/3 132/5/3 134/5/3
f 136/1/3 134/1/3 118/1/3
f 136/4/3 135/4/3 134/4/3
f 137/3/3 133/3/3 135/3/3
f 137/4/3 135/4/3 136/4/3
f 138/1/3 136/1/3 118/1/3
f 138/5/3 137/5/3 136/5/3
f 139/3/3 133/3/3 137/3/3
f 139/5/3 137/5/3 138/5/3
f 140/1/3 62/1/3 133/1/3
f 140/3/3 133/3/3 139/3/3
f 141/1/3 139/1/3 138/1/3
f 141/1/3 118/1/3 61/1/3
f 141/1/3 140/1/3 139/1/3
f 141/1/3 138/1/3 118/1/3
f 142/1/3 62/1/3 140/1/3
f 142/1/3 140/1/3 141/1/3
f 146/2/3 144/2/3 143/2/3
f 147/2/3 144/2/3 146/2/3
f 148/2/3 146/2/3 145/2/3
f 149/2/3 146/2/3 148/2/3
f 150/2/3 148/2/3 145/2/3
f 151/2/3 148/2/3 150/2/3
f 153/2/3 152/2/3 151/2/3
f 154/2/3 152/2/3 153/2/3
f 156/2/3 155/2/3 154/2/3
f 157/2/3 155/2/3 156/2/3
f 159/2/3 158/2/3 157/2/3
f 160/2/3 158/2/3 159/2/3
f 162/2/3 161/2/3 160/2/3
f 163/2/3 161/2/3 162/2/3
f 164/2/4 165/2/4 167/2/4
f 167/2/4 165/2/4 168/2/4
f 166/2/4 167/2/4 169/2/4
f 169/2/4 167/2/4 170/2/4
f 166/2/4 169/2/4 171/2/4
f 171/2/4 169/2/4 172/2/4
f 172/2/4 173/2/4 174/2/4
f 174/2/4 173/2/4 175/2/4
f 175/2/4 176/2/4 177/2/4
f 177/2/4 176/2/4 178/2/4
f 178/2/4 179/2/4 180/2/4
f 180/2/4 179/2/4 181/2/4
f 181/2/4 182/2/4 183/2/4
f 183/2/4 182/2/4 184/2/4
f 185/1/4 186/1/4 187/1/4
f 187/1/4 186/1/4 188/1/4
f 191/1/5 190/1/5 189/1/5
f 192/1/5 190/1/5 191/1/5
f 195/2/5 194/2/5 193/2/5
f 196/2/5 194/2/5 195/2/5
f 201/2/5 198/2/5 197/2/5
f 202/2/5 198/2/5 201/2/5
f 203/2/5 200/2/5 199/2/5
f 204/2/5 200/2/5 203/2/5
f 207/2/5 206/2/5 205/2/5
f 208/2/5 206/2/5 207/2/5
f 211/2/5 210/2/5 209/2/5
f 212/2/5 210/2/5 211/2/5
f 213/1/6 214/1/6 215/1/6
f 215/1/6 214/1/6 216/1/6
f 213/1/6 215/1/6 217/1/6
f 216/1/6 214/1/6 218/1/6
f 213/1/6 217/1/6 219/1/6
f 217/1/6 218/1/6 219/1/6
f 218/1/6 214/1/6 220/1/6
f 219/1/6 218/1/6 220/1/6
f 221/2/6 222/2/6 223/2/6
f 223/2/6 222/2/6 224/2/6
f 225/2/6 226/2/6 229/2/6
f 229/2/6 226/2/6 230/2/6
f 227/2/6 228/2/6 231/2/6
f 231/2/6 228/2/6 232/2/6
f 233/2/6 234/2/6 235/2/6
f 235/2/6 234/2/6 236/2/6
f 237/2/6 238/2/6 239/2/6
f 239/2/6 238/2/6 240/2/6
f 241/2/6 242/2/6 243/2/6
f 243/2/6 242/2/6 244/2/6
f 245/2/6 246/2/6 247/2/6
f 247/2/6 246/2/6 248/2/6
